<svg xmlns="http://www.w3.org/2000/svg" version="1.1" xmlns:xlink="http://www.w3.org/1999/xlink" width="1000" height="1000"><metadata><rdf:RDF xmlns:rdf="http://www.w3.org/1999/02/22-rdf-syntax-ns#" xmlns:dc="http://purl.org/dc/elements/1.1/"><rdf:Description><dc:creator>RealFaviconGenerator</dc:creator><dc:source>https://realfavicongenerator.net</dc:source></rdf:Description></rdf:RDF></metadata><g clip-path="url(#SvgjsClipPath1051)"><rect width="1000" height="1000" fill="#ffffff"></rect><g transform="matrix(0.9,0,0,0.9,50,50)"><svg xmlns="http://www.w3.org/2000/svg" version="1.1" xmlns:xlink="http://www.w3.org/1999/xlink" baseProfile="full" height="1000" viewBox="0 0 1000 1000" width="1000" xmlns:ev="http://www.w3.org/2001/xml-events"><defs><clipPath id="SvgjsClipPath1051"><rect width="1000" height="1000" x="0" y="0" rx="300" ry="300"></rect></clipPath></defs><circle cx="500.0" cy="420" fill="white" r="290" stroke="#145314" stroke-width="6"></circle><polygon fill="none" opacity="0.6" points="865.9807621135332,405.0 865.9807621135332,435.0 840.0,450.0 814.0192378864668,435.0 814.0192378864668,405.0 840.0,390.0" stroke="#145314" stroke-width="2"></polygon><polygon fill="none" opacity="0.6" points="845.476253180742,521.2868487307273 845.476253180742,551.2868487307273 819.4954910672088,566.2868487307273 793.5147289536757,551.2868487307273 793.5147289536757,521.2868487307273 819.4954910672088,506.28684873072734" stroke="#145314" stroke-width="2"></polygon><polygon fill="none" opacity="0.6" points="786.4358727739857,623.5477872934233 786.4358727739857,653.5477872934233 760.4551106604525,668.5477872934233 734.4743485469194,653.5477872934233 734.4743485469194,623.5477872934233 760.4551106604525,608.5477872934233" stroke="#145314" stroke-width="2"></polygon><polygon fill="none" opacity="0.6" points="695.9807621135332,699.4486372867091 695.9807621135332,729.4486372867091 670.0,744.4486372867091 644.0192378864668,729.4486372867091 644.0192378864668,699.4486372867091 670.0,684.4486372867091" stroke="#145314" stroke-width="2"></polygon><polygon fill="none" opacity="0.6" points="585.0211425202895,739.8346360241508 585.0211425202895,769.8346360241508 559.0403804067563,784.8346360241508 533.0596182932231,769.8346360241508 533.0596182932231,739.8346360241508 559.0403804067563,724.8346360241508" stroke="#145314" stroke-width="2"></polygon><polygon fill="none" opacity="0.6" points="466.94038170677686,739.8346360241508 466.94038170677686,769.8346360241508 440.9596195932437,784.8346360241508 414.97885747971054,769.8346360241508 414.97885747971054,739.8346360241508 440.9596195932437,724.8346360241508" stroke="#145314" stroke-width="2"></polygon><polygon fill="none" opacity="0.6" points="355.9807621135333,699.4486372867092 355.9807621135333,729.4486372867092 330.0000000000001,744.4486372867092 304.01923788646695,729.4486372867092 304.01923788646695,699.4486372867092 330.0000000000001,684.4486372867092" stroke="#145314" stroke-width="2"></polygon><polygon fill="none" opacity="0.6" points="265.5256514530807,623.5477872934234 265.5256514530807,653.5477872934234 239.54488933954752,668.5477872934234 213.56412722601436,653.5477872934234 213.56412722601436,623.5477872934234 239.54488933954752,608.5477872934234" stroke="#145314" stroke-width="2"></polygon><polygon fill="none" opacity="0.6" points="206.48527104632433,521.2868487307275 206.48527104632433,551.2868487307275 180.50450893279117,566.2868487307275 154.523746819258,551.2868487307275 154.523746819258,521.2868487307275 180.50450893279117,506.28684873072746" stroke="#145314" stroke-width="2"></polygon><polygon fill="none" opacity="0.6" points="185.98076211353316,405.00000000000006 185.98076211353316,435.00000000000006 160.0,450.00000000000006 134.01923788646684,435.00000000000006 134.01923788646684,405.00000000000006 160.0,390.00000000000006" stroke="#145314" stroke-width="2"></polygon><polygon fill="none" opacity="0.6" points="206.48527104632427,288.71315126927266 206.48527104632427,318.71315126927266 180.5045089327911,333.71315126927266 154.52374681925795,318.71315126927266 154.52374681925795,288.71315126927266 180.5045089327911,273.71315126927266" stroke="#145314" stroke-width="2"></polygon><polygon fill="none" opacity="0.6" points="265.5256514530806,186.45221270657666 265.5256514530806,216.45221270657666 239.54488933954747,231.45221270657666 213.5641272260143,216.45221270657666 213.5641272260143,186.45221270657666 239.54488933954747,171.45221270657666" stroke="#145314" stroke-width="2"></polygon><polygon fill="none" opacity="0.6" points="355.98076211353305,110.55136271329093 355.98076211353305,140.55136271329093 329.9999999999999,155.55136271329093 304.0192378864667,140.55136271329093 304.0192378864667,110.55136271329093 329.9999999999999,95.55136271329093" stroke="#145314" stroke-width="2"></polygon><polygon fill="none" opacity="0.6" points="466.94038170677686,70.16536397584929 466.94038170677686,100.16536397584929 440.9596195932437,115.16536397584929 414.97885747971054,100.16536397584929 414.97885747971054,70.16536397584929 440.9596195932437,55.16536397584929" stroke="#145314" stroke-width="2"></polygon><polygon fill="none" opacity="0.6" points="585.0211425202893,70.16536397584923 585.0211425202893,100.16536397584923 559.0403804067562,115.16536397584923 533.059618293223,100.16536397584923 533.059618293223,70.16536397584923 559.0403804067562,55.16536397584923" stroke="#145314" stroke-width="2"></polygon><polygon fill="none" opacity="0.6" points="695.9807621135332,110.55136271329087 695.9807621135332,140.55136271329087 670.0,155.55136271329087 644.0192378864668,140.55136271329087 644.0192378864668,110.55136271329087 670.0,95.55136271329087" stroke="#145314" stroke-width="2"></polygon><polygon fill="none" opacity="0.6" points="786.4358727739856,186.45221270657655 786.4358727739856,216.45221270657655 760.4551106604524,231.45221270657655 734.4743485469193,216.45221270657655 734.4743485469193,186.45221270657655 760.4551106604524,171.45221270657655" stroke="#145314" stroke-width="2"></polygon><polygon fill="none" opacity="0.6" points="845.476253180742,288.71315126927266 845.476253180742,318.71315126927266 819.4954910672088,333.71315126927266 793.5147289536757,318.71315126927266 793.5147289536757,288.71315126927266 819.4954910672088,273.71315126927266" stroke="#145314" stroke-width="2"></polygon><path d="M 500 610 C 480 560 475 510 490 450 C 495 420 505 420 510 450 C 525 510 520 560 500 610 Z" fill="#145314"></path><path d="M 500 600 C 440.0 630 380 650 380 700" fill="none" stroke="#145314" stroke-linecap="round" stroke-width="5"></path><path d="M 500 600 C 465.0 630 430 650 430 700" fill="none" stroke="#145314" stroke-linecap="round" stroke-width="5"></path><path d="M 500 600 C 490.0 630 480 650 480 700" fill="none" stroke="#145314" stroke-linecap="round" stroke-width="5"></path><path d="M 500 600 C 510.0 630 520 650 520 700" fill="none" stroke="#145314" stroke-linecap="round" stroke-width="5"></path><path d="M 500 600 C 535.0 630 570 650 570 700" fill="none" stroke="#145314" stroke-linecap="round" stroke-width="5"></path><path d="M 500 600 C 560.0 630 620 650 620 700" fill="none" stroke="#145314" stroke-linecap="round" stroke-width="5"></path><path d="M250 720 L250 726.0610273231417 L275 727.9999600267056 L300 726.0278938195171 L325 721.1089271173806 L350 715.647831112885 L375 712.3144117117844 L400 712.7383020126524 L425 716.7122716669074 L450 722.2935370934727 L475 726.753544283197 L500 727.9118969337576 L525 725.202302721257 L550 719.9494207662776 L575 714.7212658508504 L600 712.0737642685094 L625 713.3012194620453 L650 717.8035564424716 L675 723.3796848333982 L700 727.303562005821 L725 727.6568934562621 L750 724.2669434568933 " fill="none" stroke="#145314" stroke-width="5"></path><path d="M250 736 L250 742.0610273231417 L275 743.9999600267056 L300 742.0278938195171 L325 737.1089271173806 L350 731.647831112885 L375 728.3144117117844 L400 728.7383020126524 L425 732.7122716669074 L450 738.2935370934727 L475 742.753544283197 L500 743.9118969337576 L525 741.202302721257 L550 735.9494207662776 L575 730.7212658508504 L600 728.0737642685094 L625 729.3012194620453 L650 733.8035564424716 L675 739.3796848333982 L700 743.303562005821 L725 743.6568934562621 L750 740.2669434568933 " fill="none" stroke="#145314" stroke-width="5"></path><path d="M250 752 L250 758.0610273231417 L275 759.9999600267056 L300 758.0278938195171 L325 753.1089271173806 L350 747.647831112885 L375 744.3144117117844 L400 744.7383020126524 L425 748.7122716669074 L450 754.2935370934727 L475 758.753544283197 L500 759.9118969337576 L525 757.202302721257 L550 751.9494207662776 L575 746.7212658508504 L600 744.0737642685094 L625 745.3012194620453 L650 749.8035564424716 L675 755.3796848333982 L700 759.303562005821 L725 759.6568934562621 L750 756.2669434568933 " fill="none" stroke="#145314" stroke-width="5"></path><path d="M 500.0 470 Q 459.8496494554268 527.3406431002294 344.3611115850915 361.0204770933012 Q 540.1503505445733 412.65935689977056 500.0 470" fill="white" stroke="#145314" stroke-width="5"></path><path d="M 500.0 470 Q 439.3782217350893 505.0 405.0 305.4551732809566 Q 560.6217782649107 435.0 500.0 470" fill="white" stroke="#145314" stroke-width="5"></path><path d="M 500.0 470 Q 431.06345728914545 482.1553724366851 467.00684624328323 282.8865269276805 Q 568.9365427108546 457.8446275633149 500.0 470" fill="white" stroke="#145314" stroke-width="5"></path><path d="M 500.0 470 Q 431.06345728914545 457.8446275633149 532.9931537567168 282.8865269276805 Q 568.9365427108546 482.1553724366851 500.0 470" fill="white" stroke="#145314" stroke-width="5"></path><path d="M 500.0 470 Q 439.3782217350893 435.0 595.0 305.4551732809566 Q 560.6217782649107 505.0 500.0 470" fill="white" stroke="#145314" stroke-width="5"></path><path d="M 500.0 470 Q 459.8496494554268 412.65935689977056 655.6388884149085 361.0204770933012 Q 540.1503505445733 527.3406431002294 500.0 470" fill="white" stroke="#145314" stroke-width="5"></path><path d="M 500.0 480 Q 410.0 480.0 500.0 260.0 Q 590.0 480.0 500.0 480" fill="white" stroke="#145314" stroke-width="5"></path><ellipse cx="500.0" cy="420" fill="white" rx="32" ry="18" stroke="#145314" stroke-width="4"></ellipse><circle cx="500.0" cy="420" fill="#145314" r="8"></circle><rect fill="#145314" height="10" width="10" x="425.0" y="325"></rect><rect fill="#145314" height="10" width="10" x="460.0" y="325"></rect><rect fill="#145314" height="10" width="10" x="495.0" y="325"></rect><rect fill="#145314" height="10" width="10" x="530.0" y="325"></rect><rect fill="#145314" height="10" width="10" x="565.0" y="325"></rect><text fill="#145314" font-family="Georgia" font-size="88" text-anchor="middle" x="500.0" y="860">AranyAI</text><text fill="#145314" font-family="Arial" font-size="28" letter-spacing="1" text-anchor="middle" x="500.0" y="915">Forest Change Detection &amp; Monitoring</text></svg></g></g></svg>